<mxfile host="app.diagrams.net" modified="2021-03-12T13:44:44.893Z" agent="5.0 (Macintosh; Intel Mac OS X 10_15_6) AppleWebKit/605.1.15 (KHTML, like Gecko) Version/14.0.3 Safari/605.1.15" etag="2NLC5WcRHQrqQ1jutvvM" version="14.4.3" type="github">
  <diagram id="_T0ZE6IYKcckWtxlr23s" name="Page-1">
    <mxGraphModel dx="1425" dy="817" grid="1" gridSize="10" guides="1" tooltips="1" connect="1" arrows="1" fold="1" page="1" pageScale="1" pageWidth="827" pageHeight="1169" math="0" shadow="0">
      <root>
        <mxCell id="0" />
        <mxCell id="1" parent="0" />
        <mxCell id="ZQk0muWD7_RJTWuYfnE8-1" value="" style="shape=note;whiteSpace=wrap;html=1;backgroundOutline=1;darkOpacity=0.05;" vertex="1" parent="1">
          <mxGeometry x="40" y="180" width="60" height="80" as="geometry" />
        </mxCell>
        <mxCell id="ZQk0muWD7_RJTWuYfnE8-2" value="" style="shape=note;whiteSpace=wrap;html=1;backgroundOutline=1;darkOpacity=0.05;" vertex="1" parent="1">
          <mxGeometry x="50" y="190" width="60" height="80" as="geometry" />
        </mxCell>
        <mxCell id="ZQk0muWD7_RJTWuYfnE8-3" value="&lt;br&gt;Java soubory" style="shape=note;whiteSpace=wrap;html=1;backgroundOutline=1;darkOpacity=0.05;" vertex="1" parent="1">
          <mxGeometry x="60" y="200" width="60" height="80" as="geometry" />
        </mxCell>
        <mxCell id="ZQk0muWD7_RJTWuYfnE8-4" value="" style="shape=note;whiteSpace=wrap;html=1;backgroundOutline=1;darkOpacity=0.05;" vertex="1" parent="1">
          <mxGeometry x="720" y="180" width="60" height="80" as="geometry" />
        </mxCell>
        <mxCell id="ZQk0muWD7_RJTWuYfnE8-5" value="" style="shape=note;whiteSpace=wrap;html=1;backgroundOutline=1;darkOpacity=0.05;" vertex="1" parent="1">
          <mxGeometry x="730" y="190" width="60" height="80" as="geometry" />
        </mxCell>
        <mxCell id="ZQk0muWD7_RJTWuYfnE8-6" value="&lt;br&gt;Class&lt;br&gt;soubory" style="shape=note;whiteSpace=wrap;html=1;backgroundOutline=1;darkOpacity=0.05;" vertex="1" parent="1">
          <mxGeometry x="740" y="200" width="60" height="80" as="geometry" />
        </mxCell>
        <mxCell id="ZQk0muWD7_RJTWuYfnE8-7" value="Analýza zdrojového kódu" style="rounded=0;whiteSpace=wrap;html=1;" vertex="1" parent="1">
          <mxGeometry x="160" y="220" width="120" height="60" as="geometry" />
        </mxCell>
        <mxCell id="ZQk0muWD7_RJTWuYfnE8-20" style="edgeStyle=orthogonalEdgeStyle;rounded=0;orthogonalLoop=1;jettySize=auto;html=1;exitX=0.5;exitY=1;exitDx=0;exitDy=0;entryX=0;entryY=0.75;entryDx=0;entryDy=0;" edge="1" parent="1" source="ZQk0muWD7_RJTWuYfnE8-8" target="ZQk0muWD7_RJTWuYfnE8-7">
          <mxGeometry relative="1" as="geometry">
            <Array as="points">
              <mxPoint x="420" y="330" />
              <mxPoint x="140" y="330" />
              <mxPoint x="140" y="265" />
            </Array>
          </mxGeometry>
        </mxCell>
        <mxCell id="ZQk0muWD7_RJTWuYfnE8-22" value="Zbývají&lt;br&gt;anotace&lt;br&gt;ke&lt;br&gt;zpracování" style="edgeLabel;html=1;align=center;verticalAlign=middle;resizable=0;points=[];" vertex="1" connectable="0" parent="ZQk0muWD7_RJTWuYfnE8-20">
          <mxGeometry x="-0.0666" y="1" relative="1" as="geometry">
            <mxPoint as="offset" />
          </mxGeometry>
        </mxCell>
        <mxCell id="ZQk0muWD7_RJTWuYfnE8-8" value="Anotační procesor" style="rounded=0;whiteSpace=wrap;html=1;" vertex="1" parent="1">
          <mxGeometry x="360" y="220" width="120" height="60" as="geometry" />
        </mxCell>
        <mxCell id="ZQk0muWD7_RJTWuYfnE8-10" value="Generování class souborů" style="rounded=0;whiteSpace=wrap;html=1;" vertex="1" parent="1">
          <mxGeometry x="560" y="220" width="120" height="60" as="geometry" />
        </mxCell>
        <mxCell id="ZQk0muWD7_RJTWuYfnE8-11" value="" style="endArrow=classic;html=1;entryX=0;entryY=0.5;entryDx=0;entryDy=0;" edge="1" parent="1" target="ZQk0muWD7_RJTWuYfnE8-8">
          <mxGeometry width="50" height="50" relative="1" as="geometry">
            <mxPoint x="280" y="250" as="sourcePoint" />
            <mxPoint x="330" y="200" as="targetPoint" />
          </mxGeometry>
        </mxCell>
        <mxCell id="ZQk0muWD7_RJTWuYfnE8-12" value="Zachycení&lt;br&gt;anotace" style="edgeLabel;html=1;align=center;verticalAlign=middle;resizable=0;points=[];" vertex="1" connectable="0" parent="ZQk0muWD7_RJTWuYfnE8-11">
          <mxGeometry x="0.05" y="-1" relative="1" as="geometry">
            <mxPoint x="-2" y="-1" as="offset" />
          </mxGeometry>
        </mxCell>
        <mxCell id="ZQk0muWD7_RJTWuYfnE8-13" value="" style="endArrow=classic;html=1;entryX=0;entryY=0.5;entryDx=0;entryDy=0;" edge="1" parent="1" target="ZQk0muWD7_RJTWuYfnE8-10">
          <mxGeometry width="50" height="50" relative="1" as="geometry">
            <mxPoint x="480" y="250" as="sourcePoint" />
            <mxPoint x="530" y="200" as="targetPoint" />
          </mxGeometry>
        </mxCell>
        <mxCell id="ZQk0muWD7_RJTWuYfnE8-21" value="Všechny&lt;br&gt;anotace&lt;br&gt;byly&lt;br&gt;zpracovány" style="edgeLabel;html=1;align=center;verticalAlign=middle;resizable=0;points=[];" vertex="1" connectable="0" parent="ZQk0muWD7_RJTWuYfnE8-13">
          <mxGeometry x="-0.056" y="1" relative="1" as="geometry">
            <mxPoint as="offset" />
          </mxGeometry>
        </mxCell>
        <mxCell id="ZQk0muWD7_RJTWuYfnE8-17" value="" style="endArrow=classic;html=1;" edge="1" parent="1">
          <mxGeometry width="50" height="50" relative="1" as="geometry">
            <mxPoint x="120" y="249.5" as="sourcePoint" />
            <mxPoint x="160" y="249.5" as="targetPoint" />
          </mxGeometry>
        </mxCell>
        <mxCell id="ZQk0muWD7_RJTWuYfnE8-19" value="" style="endArrow=classic;html=1;" edge="1" parent="1">
          <mxGeometry width="50" height="50" relative="1" as="geometry">
            <mxPoint x="680" y="249.5" as="sourcePoint" />
            <mxPoint x="720" y="249.5" as="targetPoint" />
          </mxGeometry>
        </mxCell>
      </root>
    </mxGraphModel>
  </diagram>
</mxfile>
